<svg width="42" height="42" viewBox="0 0 42 42" fill="none" xmlns="http://www.w3.org/2000/svg">
<path opacity="0.2" d="M24.9375 26.25H31.5C33.2405 26.25 34.9097 25.5586 36.1404 24.3279C37.3711 23.0972 38.0625 21.428 38.0625 19.6875C38.0625 17.947 37.3711 16.2778 36.1404 15.0471C34.9097 13.8164 33.2405 13.125 31.5 13.125H24.9375V26.25Z" fill="black"/>
<path d="M24.9376 13.125V33.4195C24.9356 33.6377 24.9886 33.8528 25.0919 34.0449C25.1951 34.237 25.3452 34.4 25.5282 34.5188L27.3329 35.7164C27.5077 35.8331 27.708 35.9062 27.9169 35.9293C28.1259 35.9525 28.3373 35.9252 28.5335 35.8496C28.7297 35.774 28.9048 35.6524 29.0442 35.4951C29.1836 35.3377 29.2831 35.1492 29.3344 34.9453L31.5001 26.25" stroke="black" stroke-width="2" stroke-linecap="round" stroke-linejoin="round"/>
<path d="M31.5 26.25C33.2405 26.25 34.9097 25.5586 36.1404 24.3279C37.3711 23.0972 38.0625 21.428 38.0625 19.6875C38.0625 17.947 37.3711 16.2778 36.1404 15.0471C34.9097 13.8164 33.2405 13.125 31.5 13.125H24.9375C24.9375 13.125 15.9961 13.125 7.39922 5.92266C7.208 5.76443 6.97584 5.66365 6.72967 5.63203C6.4835 5.60041 6.23341 5.63924 6.00842 5.74401C5.78342 5.84878 5.59274 6.0152 5.4585 6.22395C5.32426 6.43271 5.25197 6.67525 5.25 6.92344V32.4516C5.25197 32.6997 5.32426 32.9423 5.4585 33.151C5.59274 33.3598 5.78342 33.5262 6.00842 33.631C6.23341 33.7358 6.4835 33.7746 6.72967 33.743C6.97584 33.7113 7.208 33.6106 7.39922 33.4523C15.9961 26.25 24.9375 26.25 24.9375 26.25H31.5Z" stroke="black" stroke-width="2" stroke-linecap="round" stroke-linejoin="round"/>
</svg>
