<svg width="32" height="33" viewBox="0 0 32 33" fill="none" xmlns="http://www.w3.org/2000/svg">
<path fill-rule="evenodd" clip-rule="evenodd" d="M0 16.5C0 7.66344 7.16344 0.5 16 0.5C24.8366 0.5 32 7.66344 32 16.5C32 25.3366 24.8366 32.5 16 32.5C7.16344 32.5 0 25.3366 0 16.5Z" fill="#4E4D4D"/>
<path fill-rule="evenodd" clip-rule="evenodd" d="M16.0009 7.9668C13.6834 7.9668 13.3925 7.97693 12.4823 8.01835C11.5739 8.05995 10.9538 8.20378 10.4112 8.4148C9.84993 8.63276 9.37384 8.92432 8.89952 9.39881C8.42485 9.87313 8.13329 10.3492 7.91462 10.9103C7.70307 11.4531 7.55906 12.0733 7.51818 12.9814C7.47746 13.8917 7.4668 14.1827 7.4668 16.5002C7.4668 18.8178 7.47711 19.1077 7.51835 20.0179C7.56013 20.9264 7.70395 21.5465 7.9148 22.0891C8.13294 22.6503 8.4245 23.1264 8.89899 23.6007C9.37313 24.0754 9.84922 24.3677 10.4101 24.5856C10.9531 24.7967 11.5733 24.9405 12.4816 24.9821C13.3918 25.0235 13.6825 25.0336 15.9999 25.0336C18.3176 25.0336 18.6075 25.0235 19.5178 24.9821C20.4262 24.9405 21.047 24.7967 21.59 24.5856C22.151 24.3677 22.6264 24.0754 23.1006 23.6007C23.5752 23.1264 23.8668 22.6503 24.0855 22.0893C24.2952 21.5465 24.4392 20.9262 24.4819 20.0181C24.5228 19.1079 24.5335 18.8178 24.5335 16.5002C24.5335 14.1827 24.5228 13.8918 24.4819 12.9816C24.4392 12.0732 24.2952 11.4531 24.0855 10.9105C23.8668 10.3492 23.5752 9.87313 23.1006 9.39881C22.6259 8.92414 22.1512 8.63258 21.5894 8.4148C21.0454 8.20378 20.425 8.05995 19.5165 8.01835C18.6063 7.97693 18.3165 7.9668 15.9983 7.9668H16.0009ZM15.2354 9.50457C15.4626 9.50421 15.7161 9.50457 16.0009 9.50457C18.2793 9.50457 18.5494 9.51274 19.4491 9.55363C20.2811 9.59168 20.7327 9.7307 21.0335 9.8475C21.4317 10.0022 21.7156 10.1871 22.0141 10.4857C22.3128 10.7844 22.4977 11.0688 22.6527 11.4671C22.7695 11.7675 22.9087 12.2191 22.9466 13.0511C22.9875 13.9507 22.9963 14.2209 22.9963 16.4982C22.9963 18.7756 22.9875 19.0458 22.9466 19.9454C22.9085 20.7774 22.7695 21.229 22.6527 21.5294C22.498 21.9276 22.3128 22.2112 22.0141 22.5097C21.7154 22.8084 21.4319 22.9932 21.0335 23.1479C20.733 23.2652 20.2811 23.4039 19.4491 23.442C18.5495 23.4828 18.2793 23.4917 16.0009 23.4917C13.7223 23.4917 13.4522 23.4828 12.5527 23.442C11.7207 23.4036 11.2691 23.2645 10.9681 23.1477C10.5699 22.9931 10.2855 22.8082 9.98679 22.5095C9.68812 22.2108 9.50323 21.9271 9.3482 21.5287C9.2314 21.2282 9.0922 20.7767 9.05433 19.9447C9.01344 19.0451 9.00527 18.7749 9.00527 16.4961C9.00527 14.2173 9.01344 13.9485 9.05433 13.049C9.09238 12.217 9.2314 11.7654 9.3482 11.4646C9.50287 11.0664 9.68812 10.7819 9.98679 10.4832C10.2855 10.1846 10.5699 9.99968 10.9681 9.84466C11.2689 9.72732 11.7207 9.58866 12.5527 9.55043C13.3399 9.51488 13.645 9.50421 15.2354 9.50243V9.50457ZM20.556 10.9215C19.9906 10.9215 19.532 11.3796 19.532 11.9451C19.532 12.5105 19.9906 12.9691 20.556 12.9691C21.1213 12.9691 21.58 12.5105 21.58 11.9451C21.58 11.3798 21.1213 10.9215 20.556 10.9215ZM16.0009 12.1179C13.5808 12.1179 11.6187 14.0801 11.6187 16.5002C11.6187 18.9203 13.5808 20.8816 16.0009 20.8816C18.4211 20.8816 20.3825 18.9203 20.3825 16.5002C20.3825 14.0801 18.4211 12.1179 16.0009 12.1179ZM16.0009 13.6557C17.5718 13.6557 18.8454 14.9292 18.8454 16.5002C18.8454 18.0711 17.5718 19.3447 16.0009 19.3447C14.4299 19.3447 13.1564 18.0711 13.1564 16.5002C13.1564 14.9292 14.4299 13.6557 16.0009 13.6557Z" fill="white"/>
</svg>
